<svg xmlns="http://www.w3.org/2000/svg" width="180" height="180" viewBox="0 0 180 180" version="1.1"><path d="M 88.276 15.203 C 86.097 18.666, 83.005 24.650, 81.407 28.500 C 78.772 34.845, 78.500 36.576, 78.500 47 C 78.500 55.760, 78.927 59.542, 80.292 62.875 C 82.723 68.810, 81.773 69.175, 78.487 63.569 C 75.169 57.907, 73.026 50.989, 72.918 45.591 L 72.836 41.500 70.220 47 C 68.134 51.383, 67.597 54.023, 67.571 60 C 67.533 69.028, 68.668 71.457, 76.765 79.681 C 85.882 88.940, 98.960 95.956, 107.167 95.989 C 110.482 96.003, 110.769 95.153, 109.909 87.863 C 109.190 81.765, 106.988 76.881, 98.924 63.500 C 91.854 51.768, 89.656 44.527, 89.668 33 C 89.673 27.534, 90.391 20.571, 91.358 16.603 C 92.283 12.810, 92.859 9.526, 92.639 9.306 C 92.419 9.086, 90.456 11.739, 88.276 15.203 M 31.838 18.571 C 23.147 34.665, 24.587 52.135, 35.816 66.847 C 41.020 73.663, 38.874 72.783, 32.034 65.296 L 25.827 58.500 26.539 63.980 C 28.038 75.521, 32.677 83.468, 41.432 89.498 C 44.494 91.607, 47 93.463, 47 93.622 C 47 93.781, 45.137 93.254, 42.860 92.451 C 37.843 90.680, 33.009 87.772, 30.529 85.032 C 27.163 81.312, 26.937 82.932, 29.981 88.962 C 31.636 92.241, 34.634 96.567, 36.643 98.576 C 40.559 102.493, 49.107 106.974, 52.691 106.990 C 53.896 106.996, 55.204 107.522, 55.598 108.159 C 56.829 110.151, 43.633 108.335, 36.792 105.572 C 33.385 104.196, 30.482 103.185, 30.342 103.325 C 29.584 104.083, 38.146 113.859, 41.846 116.461 C 45.854 119.280, 46.794 119.500, 54.833 119.500 C 59.600 119.500, 66.200 119.173, 69.500 118.773 L 75.500 118.047 70.500 120.534 C 61.871 124.825, 55.389 126.339, 50.657 125.166 L 46.500 124.137 51.197 128.433 C 59.032 135.599, 66.208 135.308, 75.039 127.465 C 83.560 119.898, 93.609 116.170, 101 117.834 C 104.483 118.619, 104.474 118.626, 99.135 119.278 C 91.546 120.205, 86.217 123.112, 79.411 130.038 C 65.896 143.793, 58.644 146.501, 37.270 145.776 C 23.102 145.295, 22.971 145.310, 24.725 147.248 C 30.227 153.328, 44.136 157.594, 55.208 156.597 C 64.609 155.752, 76.520 151.751, 84.078 146.901 C 90.338 142.884, 90.424 142.861, 87.500 145.967 C 82.607 151.163, 65.771 163.649, 57.893 167.924 C 48.849 172.831, 49.902 173.539, 64.815 172.571 C 83.116 171.383, 93.447 167.648, 101.951 159.144 C 106.418 154.677, 108.379 151.655, 119.558 132 C 126.311 120.127, 136.959 109.594, 147.526 104.335 L 155.552 100.340 145.026 97.176 C 139.237 95.436, 133.257 93.734, 131.737 93.394 C 126.838 92.299, 120.246 93.968, 114.762 97.693 L 109.500 101.266 102.795 99.563 C 68.915 90.956, 44.419 69.314, 37.358 41.750 C 36.492 38.373, 35.495 30.667, 35.142 24.626 L 34.500 13.643 31.838 18.571" stroke="none" fill="#41baf3" fill-rule="evenodd"/><path d="M 0 90.005 L 0 180.011 90.250 179.755 L 180.500 179.500 180.755 89.750 L 181.011 -0 90.505 -0 L 0 0 0 90.005 M 0.479 90.500 C 0.479 140, 0.601 160.104, 0.750 135.175 C 0.899 110.246, 0.899 69.746, 0.750 45.175 C 0.601 20.604, 0.479 41, 0.479 90.500 M 88.276 15.203 C 86.097 18.666, 83.005 24.650, 81.407 28.500 C 78.772 34.845, 78.500 36.576, 78.500 47 C 78.500 55.760, 78.927 59.542, 80.292 62.875 C 82.723 68.810, 81.773 69.175, 78.487 63.569 C 75.169 57.907, 73.026 50.989, 72.918 45.591 L 72.836 41.500 70.220 47 C 68.134 51.383, 67.597 54.023, 67.571 60 C 67.533 69.028, 68.668 71.457, 76.765 79.681 C 85.882 88.940, 98.960 95.956, 107.167 95.989 C 110.482 96.003, 110.769 95.153, 109.909 87.863 C 109.190 81.765, 106.988 76.881, 98.924 63.500 C 91.854 51.768, 89.656 44.527, 89.668 33 C 89.673 27.534, 90.391 20.571, 91.358 16.603 C 92.283 12.810, 92.859 9.526, 92.639 9.306 C 92.419 9.086, 90.456 11.739, 88.276 15.203 M 31.838 18.571 C 23.147 34.665, 24.587 52.135, 35.816 66.847 C 41.020 73.663, 38.874 72.783, 32.034 65.296 L 25.827 58.500 26.539 63.980 C 28.038 75.521, 32.677 83.468, 41.432 89.498 C 44.494 91.607, 47 93.463, 47 93.622 C 47 93.781, 45.137 93.254, 42.860 92.451 C 37.843 90.680, 33.009 87.772, 30.529 85.032 C 27.163 81.312, 26.937 82.932, 29.981 88.962 C 31.636 92.241, 34.634 96.567, 36.643 98.576 C 40.559 102.493, 49.107 106.974, 52.691 106.990 C 53.896 106.996, 55.204 107.522, 55.598 108.159 C 56.829 110.151, 43.633 108.335, 36.792 105.572 C 33.385 104.196, 30.482 103.185, 30.342 103.325 C 29.584 104.083, 38.146 113.859, 41.846 116.461 C 45.854 119.280, 46.794 119.500, 54.833 119.500 C 59.600 119.500, 66.200 119.173, 69.500 118.773 L 75.500 118.047 70.500 120.534 C 61.871 124.825, 55.389 126.339, 50.657 125.166 L 46.500 124.137 51.197 128.433 C 59.032 135.599, 66.208 135.308, 75.039 127.465 C 83.560 119.898, 93.609 116.170, 101 117.834 C 104.483 118.619, 104.474 118.626, 99.135 119.278 C 91.546 120.205, 86.217 123.112, 79.411 130.038 C 65.896 143.793, 58.644 146.501, 37.270 145.776 C 23.102 145.295, 22.971 145.310, 24.725 147.248 C 30.227 153.328, 44.136 157.594, 55.208 156.597 C 64.609 155.752, 76.520 151.751, 84.078 146.901 C 90.338 142.884, 90.424 142.861, 87.500 145.967 C 82.607 151.163, 65.771 163.649, 57.893 167.924 C 48.849 172.831, 49.902 173.539, 64.815 172.571 C 83.116 171.383, 93.447 167.648, 101.951 159.144 C 106.418 154.677, 108.379 151.655, 119.558 132 C 126.311 120.127, 136.959 109.594, 147.526 104.335 L 155.552 100.340 145.026 97.176 C 139.237 95.436, 133.257 93.734, 131.737 93.394 C 126.838 92.299, 120.246 93.968, 114.762 97.693 L 109.500 101.266 102.795 99.563 C 68.915 90.956, 44.419 69.314, 37.358 41.750 C 36.492 38.373, 35.495 30.667, 35.142 24.626 L 34.500 13.643 31.838 18.571" stroke="none" fill="none" fill-rule="evenodd"/></svg>